# Blender 3.4.1
# www.blender.org
mtllib torus10new.mtl
o torus10
v 4.000000 0.000000 0.000000
v 3.236068 2.351141 0.000000
v 1.236068 3.804226 0.000000
v -1.236068 3.804226 0.000000
v -3.236068 2.351141 0.000000
v -4.000000 0.000000 0.000000
v -3.236068 -2.351141 -0.000000
v -1.236068 -3.804226 -0.000000
v 1.236068 -3.804226 -0.000000
v 3.236068 -2.351141 -0.000000
v 3.809017 -0.000000 0.587785
v 3.081559 2.238884 0.587785
v 1.177051 3.622591 0.587785
v -1.177051 3.622591 0.587785
v -3.081559 2.238884 0.587785
v -3.809017 -0.000000 0.587785
v -3.081559 -2.238884 0.587785
v -1.177051 -3.622591 0.587785
v 1.177051 -3.622591 0.587785
v 3.081559 -2.238884 0.587785
v 3.309017 -0.000000 0.951057
v 2.677051 1.944991 0.951057
v 1.022542 3.147062 0.951057
v -1.022542 3.147062 0.951057
v -2.677051 1.944991 0.951057
v -3.309017 -0.000000 0.951057
v -2.677051 -1.944991 0.951056
v -1.022542 -3.147062 0.951056
v 1.022542 -3.147062 0.951056
v 2.677051 -1.944991 0.951056
v 2.690983 -0.000000 0.951057
v 2.177051 1.581720 0.951057
v 0.831559 2.559277 0.951057
v -0.831559 2.559277 0.951057
v -2.177051 1.581720 0.951057
v -2.690983 -0.000000 0.951057
v -2.177051 -1.581720 0.951056
v -0.831559 -2.559277 0.951056
v 0.831559 -2.559277 0.951056
v 2.177051 -1.581720 0.951056
v 2.190983 -0.000000 0.587785
v 1.772542 1.287827 0.587785
v 0.677051 2.083749 0.587785
v -0.677051 2.083749 0.587785
v -1.772542 1.287827 0.587785
v -2.190983 -0.000000 0.587785
v -1.772542 -1.287827 0.587785
v -0.677051 -2.083749 0.587785
v 0.677051 -2.083749 0.587785
v 1.772542 -1.287827 0.587785
v 2.000000 -0.000000 0.000000
v 1.618034 1.175570 0.000000
v 0.618034 1.902113 0.000000
v -0.618034 1.902113 0.000000
v -1.618034 1.175570 0.000000
v -2.000000 0.000000 0.000000
v -1.618034 -1.175570 -0.000000
v -0.618034 -1.902113 -0.000000
v 0.618034 -1.902113 -0.000000
v 1.618034 -1.175570 -0.000000
v 2.190983 0.000000 -0.587785
v 1.772542 1.287827 -0.587785
v 0.677051 2.083749 -0.587785
v -0.677051 2.083749 -0.587785
v -1.772542 1.287827 -0.587785
v -2.190983 0.000000 -0.587785
v -1.772542 -1.287827 -0.587785
v -0.677051 -2.083749 -0.587785
v 0.677051 -2.083749 -0.587785
v 1.772542 -1.287827 -0.587785
v 2.690983 0.000000 -0.951057
v 2.177051 1.581720 -0.951056
v 0.831559 2.559277 -0.951056
v -0.831559 2.559277 -0.951056
v -2.177051 1.581720 -0.951056
v -2.690983 0.000000 -0.951057
v -2.177051 -1.581720 -0.951057
v -0.831559 -2.559277 -0.951057
v 0.831559 -2.559277 -0.951057
v 2.177051 -1.581720 -0.951057
v 3.309017 0.000000 -0.951057
v 2.677051 1.944991 -0.951056
v 1.022542 3.147062 -0.951056
v -1.022542 3.147062 -0.951056
v -2.677051 1.944991 -0.951056
v -3.309017 0.000000 -0.951057
v -2.677051 -1.944991 -0.951057
v -1.022542 -3.147062 -0.951057
v 1.022542 -3.147062 -0.951057
v 2.677051 -1.944991 -0.951057
v 3.809017 0.000000 -0.587785
v 3.081559 2.238884 -0.587785
v 1.177051 3.622591 -0.587785
v -1.177051 3.622591 -0.587785
v -3.081559 2.238884 -0.587785
v -3.809017 0.000000 -0.587785
v -3.081559 -2.238884 -0.587785
v -1.177051 -3.622591 -0.587785
v 1.177051 -3.622591 -0.587785
v 3.081559 -2.238884 -0.587785
vn 0.9087 0.2952 0.2952
vn 0.5616 0.7730 0.2952
vn -0.0000 0.9554 0.2952
vn -0.5616 0.7730 0.2952
vn -0.9087 0.2952 0.2952
vn -0.9087 -0.2952 0.2952
vn -0.5616 -0.7730 0.2952
vn -0.0000 -0.9554 0.2952
vn 0.5616 -0.7730 0.2952
vn 0.9087 -0.2952 0.2952
vn 0.5774 0.1876 0.7947
vn 0.3568 0.4911 0.7947
vn -0.0000 0.6071 0.7947
vn -0.3568 0.4911 0.7947
vn -0.5774 0.1876 0.7947
vn -0.5774 -0.1876 0.7947
vn -0.3568 -0.4911 0.7947
vn -0.0000 -0.6071 0.7947
vn 0.3568 -0.4911 0.7947
vn 0.5774 -0.1876 0.7947
vn -0.0000 -0.0000 1.0000
vn -0.9087 -0.2952 -0.2952
vn -0.5616 -0.7730 -0.2952
vn -0.0000 -0.9554 -0.2952
vn 0.5616 -0.7730 -0.2952
vn 0.9087 -0.2952 -0.2952
vn 0.9087 0.2952 -0.2952
vn 0.5616 0.7730 -0.2952
vn -0.0000 0.9554 -0.2952
vn -0.5616 0.7730 -0.2952
vn -0.9087 0.2952 -0.2952
vn -0.5774 -0.1876 -0.7947
vn -0.3568 -0.4911 -0.7947
vn -0.0000 -0.6071 -0.7947
vn 0.3568 -0.4911 -0.7947
vn 0.5774 -0.1876 -0.7947
vn 0.5774 0.1876 -0.7947
vn 0.3568 0.4911 -0.7947
vn -0.0000 0.6071 -0.7947
vn -0.3568 0.4911 -0.7947
vn -0.5774 0.1876 -0.7947
vn -0.0000 -0.0000 -1.0000
s 0
f 1//1 2//1 11//1
f 11//1 2//1 12//1
f 2//2 3//2 12//2
f 12//2 3//2 13//2
f 3//3 4//3 13//3
f 13//3 4//3 14//3
f 4//4 5//4 14//4
f 14//4 5//4 15//4
f 5//5 6//5 15//5
f 15//5 6//5 16//5
f 6//6 7//6 16//6
f 16//6 7//6 17//6
f 7//7 8//7 17//7
f 17//7 8//7 18//7
f 8//8 9//8 18//8
f 18//8 9//8 19//8
f 9//9 10//9 19//9
f 19//9 10//9 20//9
f 10//10 1//10 20//10
f 20//10 1//10 11//10
f 11//11 12//11 21//11
f 21//11 12//11 22//11
f 12//12 13//12 22//12
f 22//12 13//12 23//12
f 13//13 14//13 23//13
f 23//13 14//13 24//13
f 14//14 15//14 24//14
f 24//14 15//14 25//14
f 15//15 16//15 25//15
f 25//15 16//15 26//15
f 16//16 17//16 26//16
f 26//16 17//16 27//16
f 17//17 18//17 27//17
f 27//17 18//17 28//17
f 18//18 19//18 28//18
f 28//18 19//18 29//18
f 19//19 20//19 29//19
f 29//19 20//19 30//19
f 20//20 11//20 30//20
f 30//20 11//20 21//20
f 21//21 22//21 31//21
f 31//21 22//21 32//21
f 22//21 23//21 32//21
f 32//21 23//21 33//21
f 23//21 24//21 33//21
f 33//21 24//21 34//21
f 24//21 25//21 34//21
f 34//21 25//21 35//21
f 25//21 26//21 35//21
f 35//21 26//21 36//21
f 26//21 27//21 36//21
f 36//21 27//21 37//21
f 27//21 28//21 37//21
f 37//21 28//21 38//21
f 28//21 29//21 38//21
f 38//21 29//21 39//21
f 29//21 30//21 39//21
f 39//21 30//21 40//21
f 30//21 21//21 40//21
f 40//21 21//21 31//21
f 31//16 32//16 41//16
f 41//16 32//16 42//16
f 32//17 33//17 42//17
f 42//17 33//17 43//17
f 33//18 34//18 43//18
f 43//18 34//18 44//18
f 34//19 35//19 44//19
f 44//19 35//19 45//19
f 35//20 36//20 45//20
f 45//20 36//20 46//20
f 36//11 37//11 46//11
f 46//11 37//11 47//11
f 37//12 38//12 47//12
f 47//12 38//12 48//12
f 38//13 39//13 48//13
f 48//13 39//13 49//13
f 39//14 40//14 49//14
f 49//14 40//14 50//14
f 40//15 31//15 50//15
f 50//15 31//15 41//15
f 41//6 42//6 51//6
f 51//6 42//6 52//6
f 42//7 43//7 52//7
f 52//7 43//7 53//7
f 43//8 44//8 53//8
f 53//8 44//8 54//8
f 44//9 45//9 54//9
f 54//9 45//9 55//9
f 45//10 46//10 55//10
f 55//10 46//10 56//10
f 46//1 47//1 56//1
f 56//1 47//1 57//1
f 47//2 48//2 57//2
f 57//2 48//2 58//2
f 48//3 49//3 58//3
f 58//3 49//3 59//3
f 49//4 50//4 59//4
f 59//4 50//4 60//4
f 50//5 41//5 60//5
f 60//5 41//5 51//5
f 51//22 52//22 61//22
f 61//22 52//22 62//22
f 52//23 53//23 62//23
f 62//23 53//23 63//23
f 53//24 54//24 63//24
f 63//24 54//24 64//24
f 54//25 55//25 64//25
f 64//25 55//25 65//25
f 55//26 56//26 65//26
f 65//26 56//26 66//26
f 56//27 57//27 66//27
f 66//27 57//27 67//27
f 57//28 58//28 67//28
f 67//28 58//28 68//28
f 58//29 59//29 68//29
f 68//29 59//29 69//29
f 59//30 60//30 69//30
f 69//30 60//30 70//30
f 60//31 51//31 70//31
f 70//31 51//31 61//31
f 61//32 62//32 71//32
f 71//32 62//32 72//32
f 62//33 63//33 72//33
f 72//33 63//33 73//33
f 63//34 64//34 73//34
f 73//34 64//34 74//34
f 64//35 65//35 74//35
f 74//35 65//35 75//35
f 65//36 66//36 75//36
f 75//36 66//36 76//36
f 66//37 67//37 76//37
f 76//37 67//37 77//37
f 67//38 68//38 77//38
f 77//38 68//38 78//38
f 68//39 69//39 78//39
f 78//39 69//39 79//39
f 69//40 70//40 79//40
f 79//40 70//40 80//40
f 70//41 61//41 80//41
f 80//41 61//41 71//41
f 71//42 72//42 81//42
f 81//42 72//42 82//42
f 72//42 73//42 82//42
f 82//42 73//42 83//42
f 73//42 74//42 83//42
f 83//42 74//42 84//42
f 74//42 75//42 84//42
f 84//42 75//42 85//42
f 75//42 76//42 85//42
f 85//42 76//42 86//42
f 76//42 77//42 86//42
f 86//42 77//42 87//42
f 77//42 78//42 87//42
f 87//42 78//42 88//42
f 78//42 79//42 88//42
f 88//42 79//42 89//42
f 79//42 80//42 89//42
f 89//42 80//42 90//42
f 80//42 71//42 90//42
f 90//42 71//42 81//42
f 81//37 82//37 91//37
f 91//37 82//37 92//37
f 82//38 83//38 92//38
f 92//38 83//38 93//38
f 83//39 84//39 93//39
f 93//39 84//39 94//39
f 84//40 85//40 94//40
f 94//40 85//40 95//40
f 85//41 86//41 95//41
f 95//41 86//41 96//41
f 86//32 87//32 96//32
f 96//32 87//32 97//32
f 87//33 88//33 97//33
f 97//33 88//33 98//33
f 88//34 89//34 98//34
f 98//34 89//34 99//34
f 89//35 90//35 99//35
f 99//35 90//35 100//35
f 90//36 81//36 100//36
f 100//36 81//36 91//36
f 91//27 92//27 1//27
f 1//27 92//27 2//27
f 92//28 93//28 2//28
f 2//28 93//28 3//28
f 93//29 94//29 3//29
f 3//29 94//29 4//29
f 94//30 95//30 4//30
f 4//30 95//30 5//30
f 95//31 96//31 5//31
f 5//31 96//31 6//31
f 96//22 97//22 6//22
f 6//22 97//22 7//22
f 97//23 98//23 7//23
f 7//23 98//23 8//23
f 98//24 99//24 8//24
f 8//24 99//24 9//24
f 99//25 100//25 9//25
f 9//25 100//25 10//25
f 100//26 91//26 10//26
f 10//26 91//26 1//26
